# xmcd
#
# Track frame offsets: 
#        150
#        13817
#        24556
#        36606
#        55086
#        67603
#        78629
#        90470
#        104192
#        119797
#        130952
#        140606
#        150783
#        163230
#        172703
#        181131
#        194171
#        206444
#        219546
#        233693
#        245123
#        255745
#        276066
#        288075
#        308450
#
# Disc length: 4348 seconds
#
# Revision: 0
# Processed by: cddbd v1.5.2PL0 Copyright (c) Steve Scherf et al.
# Submitted via: ExactAudioCopy v0.95b4
#
DISCID=6610fa19
DTITLE=The Wingate Valley Boys - Navajo Country Rock Volume 1 and 2
DYEAR=1900
DGENRE=Native American
TTITLE0=Playing For Keeps
TTITLE1=Think About Living
TTITLE2=A House Without Love
TTITLE3=Jalisco II
TTITLE4=Hound Bugging Ne
TTITLE5=Baby I'm Ready
TTITLE6=Milk Cow Blues
TTITLE7=Treat Me Nice
TTITLE8=Be-Bop-A-Lula
TTITLE9=You Win Again
TTITLE10=Rock The Blues Away
TTITLE11=Johnny B. Goode
TTITLE12=The Twist
TTITLE13=Limbo Rock
TTITLE14=Break
TTITLE15=Little Sister
TTITLE16=Its Now or Never
TTITLE17=Judy
TTITLE18=Money Honey
TTITLE19=The Twist
TTITLE20=You Win Again
TTITLE21=Jalisco II
TTITLE22=Huckle Buck
TTITLE23=Tequilla
TTITLE24=Be-Bop-A-Lula
EXTD=
EXTT0=
EXTT1=
EXTT2=
EXTT3=
EXTT4=
EXTT5=
EXTT6=
EXTT7=
EXTT8=
EXTT9=
EXTT10=
EXTT11=
EXTT12=
EXTT13=
EXTT14=
EXTT15=
EXTT16=
EXTT17=
EXTT18=
EXTT19=
EXTT20=
EXTT21=
EXTT22=
EXTT23=
EXTT24=
PLAYORDER=
